# xmcd
#
# Track frame offsets:
#	150
#	11875
#	25040
#	37465
#	53042
#	64585
#	74930
#	89467
#	101027
#	114950
#	130070
#	141787
#
# Disc length: 2025
#
# Revision: 2
# Processed by: cddbd v1.5.1PL0 Copyright (c) Steve Scherf et al.
# Submitted via: EasyCDDAExtractor 5.1.0
# Normalized: r1:DSETVAR1
#
DISCID=af07e70c
DTITLE=Various Artist - Millennium Country Hits
DYEAR=2000
DGENRE=country
TTITLE0=Don Gibson - I Can't Stop Loving You
TTITLE1=Lynn Anderson - Rose Garden
TTITLE2=Charlie Rich - Behind Closed Doors
TTITLE3=Lacy J Dalton - Everybody Makes Mistakes
TTITLE4=George Jones - Tender Years
TTITLE5=Dave Dudley - Six Days On The Road
TTITLE6=Johnny Paycheck - I'm The Only Hell (My Mama Ever Raised)
TTITLE7=Freddy Fender - Before The Next Teardrop Falls
TTITLE8=Anthony Armstrong - Take A Letter Maria
TTITLE9=Lee Greenwood - Going Going Gone
TTITLE10=Donna Fargo - The Happiest Girl In The Whole USA
TTITLE11=Faron Young - Hello Walls
EXTD=
EXTT0=
EXTT1=
EXTT2=
EXTT3=
EXTT4=
EXTT5=
EXTT6=
EXTT7=
EXTT8=
EXTT9=
EXTT10=
EXTT11=
PLAYORDER=
